<?xml version="1.0" encoding="UTF-8"?>
<svg xmlns="http://www.w3.org/2000/svg" viewBox="0 0 512 512" width="512" height="512" fill="#41DF04" fill-rule="evenodd">
  <path d="M 232.121 437.457 L 236.493 435.915 L 239.836 432.707 L 243.179 429.500 L 245.443 425.000 L 247.706 420.500 L 249.926 411.000 L 252.146 401.500 L 256.595 383.000 L 261.044 364.500 L 264.980 348.500 L 268.915 332.500 L 272.448 317.500 L 275.980 302.500 L 277.969 295.000 L 279.959 287.500 L 283.426 273.000 L 286.894 258.500 L 291.011 241.500 L 295.127 224.500 L 299.657 206.000 L 304.188 187.500 L 304.494 185.968 L 304.801 184.435 L 307.849 171.968 L 310.897 159.500 L 315.493 140.500 L 320.089 121.500 L 322.545 111.710 L 325.000 101.920 L 324.978 96.710 L 324.956 91.500 L 323.133 87.500 L 321.309 83.500 L 318.439 80.100 L 315.569 76.699 L 310.256 74.350 L 304.943 72.000 L 301.097 72.000 L 297.251 72.000 L 292.944 73.520 L 288.637 75.039 L 285.341 77.554 L 282.045 80.068 L 279.596 84.284 L 277.147 88.500 L 273.468 104.000 L 269.788 119.500 L 264.965 139.500 L 260.142 159.500 L 257.516 170.500 L 254.891 181.500 L 251.395 196.000 L 247.899 210.500 L 245.021 222.500 L 242.143 234.500 L 240.123 243.000 L 238.102 251.500 L 233.000 272.500 L 227.897 293.500 L 223.015 313.500 L 218.132 333.500 L 216.032 342.500 L 213.933 351.500 L 212.522 357.500 L 211.112 363.500 L 207.004 380.500 L 202.895 397.500 L 201.448 403.564 L 200.000 409.628 L 200.000 415.346 L 200.000 421.064 L 201.348 424.282 L 202.697 427.500 L 205.558 430.893 L 208.418 434.286 L 213.459 436.633 L 218.500 438.980 L 223.124 438.990 L 227.749 439.000 L 232.121 437.457 Z M 151.574 391.217 L 155.590 389.169 L 159.663 384.750 L 163.735 380.332 L 165.083 376.416 L 166.430 372.500 L 166.464 366.000 L 166.498 359.500 L 164.620 354.500 L 162.741 349.500 L 115.380 301.986 L 68.020 254.472 L 114.540 207.986 L 161.060 161.500 L 163.433 156.500 L 165.807 151.500 L 166.505 145.856 L 167.204 140.213 L 165.628 134.793 L 164.052 129.372 L 161.068 125.253 L 158.084 121.134 L 153.436 118.410 L 148.789 115.686 L 141.384 115.211 L 133.979 114.736 L 127.740 117.823 L 121.500 120.910 L 65.353 177.205 L 9.205 233.500 L 6.720 238.500 L 4.234 243.500 L 3.033 249.314 L 1.831 255.129 L 3.053 260.314 L 4.274 265.500 L 6.654 270.251 L 9.035 275.002 L 60.920 326.751 L 112.806 378.500 L 118.677 384.245 L 124.548 389.990 L 130.024 392.020 L 135.500 394.051 L 141.529 393.658 L 147.559 393.266 L 151.574 391.217 Z M 385.278 391.107 L 389.585 389.022 L 446.239 332.201 L 502.892 275.379 L 505.326 270.439 L 507.760 265.500 L 508.999 260.168 L 510.239 254.837 L 509.011 249.052 L 507.784 243.268 L 505.142 238.166 L 502.500 233.065 L 446.205 176.600 L 389.910 120.135 L 385.205 117.829 L 380.500 115.524 L 373.500 115.512 L 366.500 115.500 L 362.533 117.467 L 358.566 119.434 L 354.898 123.102 L 351.230 126.770 L 349.024 132.635 L 346.819 138.500 L 347.205 144.500 L 347.591 150.500 L 350.145 156.041 L 352.698 161.583 L 398.099 207.401 L 443.500 253.220 L 443.871 254.224 L 444.243 255.228 L 398.668 300.864 L 353.093 346.500 L 350.296 352.500 L 347.500 358.500 L 347.500 366.000 L 347.500 373.500 L 350.378 379.361 L 353.255 385.221 L 357.670 388.361 L 362.085 391.500 L 365.792 392.733 L 369.500 393.966 L 375.236 393.579 L 380.971 393.192 L 385.278 391.107 Z"/>
</svg>
