<?xml version="1.0" encoding="UTF-8"?>
<svg xmlns="http://www.w3.org/2000/svg" viewBox="0 0 512 512" width="512" height="512" fill="#41DF04" fill-rule="evenodd">
  <path d="M 284.060 505.611 L 292.500 503.250 L 297.609 501.195 L 302.717 499.141 L 312.609 493.217 L 322.500 487.294 L 343.000 474.811 L 363.500 462.328 L 382.000 451.022 L 400.500 439.716 L 407.500 435.516 L 414.500 431.316 L 432.500 420.336 L 450.500 409.356 L 460.000 403.529 L 469.500 397.703 L 478.747 392.258 L 487.994 386.814 L 491.984 382.281 L 495.974 377.748 L 498.734 372.124 L 501.493 366.500 L 501.493 354.000 L 501.492 341.500 L 498.764 336.320 L 496.037 331.139 L 493.796 329.570 L 491.555 328.000 L 489.738 328.000 L 487.920 328.000 L 484.210 330.011 L 480.500 332.021 L 474.000 336.153 L 467.500 340.284 L 465.500 341.407 L 463.500 342.531 L 456.500 346.831 L 449.500 351.131 L 440.272 356.816 L 431.044 362.500 L 402.487 380.000 L 373.929 397.500 L 368.215 401.094 L 362.500 404.688 L 344.725 415.594 L 326.950 426.500 L 324.225 428.124 L 321.500 429.748 L 315.000 433.904 L 308.500 438.061 L 300.000 442.148 L 291.500 446.236 L 283.500 448.770 L 275.500 451.305 L 257.000 451.386 L 238.500 451.467 L 229.000 448.611 L 219.500 445.754 L 218.500 444.999 L 217.500 444.245 L 215.031 443.485 L 212.562 442.726 L 201.717 436.113 L 190.872 429.500 L 187.660 427.500 L 184.448 425.500 L 178.974 422.205 L 173.500 418.910 L 167.000 414.830 L 160.500 410.750 L 157.500 408.995 L 154.500 407.241 L 134.500 395.002 L 114.500 382.762 L 105.500 377.241 L 96.500 371.719 L 90.500 368.007 L 84.500 364.294 L 75.500 358.789 L 66.500 353.283 L 55.500 346.525 L 44.500 339.767 L 41.000 337.555 L 37.500 335.343 L 31.349 331.671 L 25.199 328.000 L 22.967 328.000 L 20.736 328.000 L 17.456 331.478 L 14.175 334.957 L 12.385 340.228 L 10.594 345.500 L 10.694 355.350 L 10.795 365.200 L 14.338 372.350 L 17.882 379.500 L 22.191 383.599 L 26.500 387.698 L 43.500 397.979 L 60.500 408.261 L 68.283 413.131 L 76.066 418.000 L 76.588 418.000 L 77.111 418.000 L 84.805 422.851 L 92.500 427.703 L 109.500 437.987 L 126.500 448.271 L 135.500 453.793 L 144.500 459.315 L 153.000 464.520 L 161.500 469.724 L 175.000 478.015 L 188.500 486.307 L 192.845 488.904 L 197.190 491.500 L 201.845 494.302 L 206.500 497.103 L 212.000 499.631 L 217.500 502.159 L 219.500 503.018 L 221.500 503.876 L 227.500 505.585 L 233.500 507.294 L 240.000 508.076 L 246.500 508.859 L 261.060 508.415 L 275.620 507.971 L 284.060 505.611 Z M 275.203 420.955 L 284.386 418.909 L 292.443 414.646 L 300.500 410.383 L 315.768 400.941 L 331.036 391.500 L 334.986 389.000 L 338.935 386.500 L 353.513 377.500 L 368.090 368.500 L 371.399 366.500 L 374.709 364.500 L 387.604 356.408 L 400.500 348.316 L 414.000 340.001 L 427.500 331.686 L 444.500 321.190 L 461.500 310.694 L 469.500 305.582 L 477.500 300.469 L 480.500 299.002 L 483.500 297.535 L 490.000 290.981 L 496.500 284.428 L 499.000 277.964 L 501.500 271.500 L 501.474 258.500 L 501.447 245.500 L 498.610 240.000 L 495.772 234.500 L 494.231 232.750 L 492.690 231.000 L 489.174 231.000 L 485.657 231.000 L 484.079 232.338 L 482.500 233.675 L 465.500 243.973 L 448.500 254.271 L 439.750 259.635 L 431.000 265.000 L 422.000 270.500 L 413.000 276.000 L 404.250 281.368 L 395.500 286.736 L 383.500 294.058 L 371.500 301.379 L 363.000 306.534 L 354.500 311.689 L 336.000 322.996 L 317.500 334.303 L 311.000 338.167 L 304.500 342.030 L 297.125 345.515 L 289.750 349.000 L 288.625 349.013 L 287.500 349.026 L 281.000 351.111 L 274.500 353.196 L 257.000 353.268 L 239.500 353.341 L 230.041 350.535 L 220.583 347.729 L 214.041 344.795 L 207.500 341.861 L 198.500 336.293 L 189.500 330.724 L 181.000 325.527 L 172.500 320.330 L 163.000 314.500 L 153.500 308.670 L 145.000 303.473 L 136.500 298.276 L 127.500 292.764 L 118.500 287.251 L 88.500 269.017 L 58.500 250.783 L 54.500 248.306 L 50.500 245.829 L 38.500 238.434 L 26.500 231.038 L 23.301 231.019 L 20.102 231.000 L 17.714 234.250 L 15.325 237.500 L 12.990 243.000 L 10.655 248.500 L 10.650 260.000 L 10.645 271.500 L 14.197 279.000 L 17.748 286.500 L 23.124 291.668 L 28.500 296.837 L 32.682 298.984 L 36.864 301.131 L 38.054 302.565 L 39.245 304.000 L 40.138 304.000 L 41.031 304.000 L 46.765 307.674 L 52.500 311.348 L 56.000 313.536 L 59.500 315.723 L 80.500 328.693 L 101.500 341.663 L 121.500 353.972 L 141.500 366.280 L 145.000 368.514 L 148.500 370.748 L 162.000 379.059 L 175.500 387.370 L 186.000 393.828 L 196.500 400.285 L 201.500 403.456 L 206.500 406.628 L 211.466 409.843 L 216.433 413.059 L 221.549 415.480 L 226.666 417.901 L 234.083 419.868 L 241.500 421.835 L 244.000 422.281 L 246.500 422.728 L 256.261 422.864 L 266.021 423.000 L 275.203 420.955 Z M 271.231 322.906 L 278.500 321.813 L 284.000 319.843 L 289.500 317.873 L 294.500 315.396 L 299.500 312.919 L 307.000 308.339 L 314.500 303.759 L 323.809 297.879 L 333.118 292.000 L 333.654 292.000 L 334.191 292.000 L 336.846 290.120 L 339.500 288.240 L 350.500 281.481 L 361.500 274.723 L 396.500 253.243 L 431.500 231.763 L 435.000 229.775 L 438.500 227.787 L 439.500 227.001 L 440.500 226.216 L 454.000 217.965 L 467.500 209.715 L 476.000 204.693 L 484.500 199.672 L 489.787 194.586 L 495.074 189.500 L 498.287 183.000 L 501.500 176.500 L 501.500 164.000 L 501.499 151.500 L 498.620 145.816 L 495.741 140.133 L 492.056 136.316 L 488.372 132.500 L 468.436 120.089 L 448.500 107.677 L 443.500 104.472 L 438.500 101.267 L 427.000 93.992 L 415.500 86.717 L 409.786 83.109 L 404.073 79.500 L 396.286 74.580 L 388.500 69.660 L 383.500 66.459 L 378.500 63.257 L 356.238 49.379 L 333.976 35.500 L 330.680 33.500 L 327.384 31.500 L 322.442 28.553 L 317.500 25.605 L 310.000 20.680 L 302.500 15.754 L 295.874 12.372 L 289.248 8.991 L 281.374 6.389 L 273.500 3.788 L 257.000 3.695 L 240.500 3.603 L 233.000 5.925 L 225.500 8.247 L 218.984 11.415 L 212.468 14.582 L 198.138 23.541 L 183.809 32.500 L 146.155 56.159 L 108.500 79.818 L 101.500 84.255 L 94.500 88.692 L 64.500 107.487 L 34.500 126.282 L 28.164 130.336 L 21.828 134.390 L 19.048 138.445 L 16.269 142.500 L 13.763 147.500 L 11.257 152.500 L 10.572 159.035 L 9.887 165.569 L 10.853 171.565 L 11.818 177.561 L 14.632 183.531 L 17.446 189.500 L 21.982 194.056 L 26.518 198.613 L 29.509 200.135 L 32.500 201.658 L 40.500 206.521 L 48.500 211.384 L 57.500 216.858 L 66.500 222.333 L 70.000 224.547 L 73.500 226.762 L 81.000 231.247 L 88.500 235.732 L 102.000 244.021 L 115.500 252.310 L 130.257 261.405 L 145.015 270.500 L 149.257 273.102 L 153.500 275.705 L 162.500 281.308 L 171.500 286.911 L 181.804 293.205 L 192.107 299.500 L 196.304 302.182 L 200.500 304.864 L 205.969 308.182 L 211.438 311.500 L 215.969 314.037 L 220.500 316.574 L 226.500 319.007 L 232.500 321.439 L 240.000 322.600 L 247.500 323.761 L 255.731 323.880 L 263.963 324.000 L 271.231 322.906 Z"/>
</svg>
