<?xml version="1.0" encoding="UTF-8"?>
<svg xmlns="http://www.w3.org/2000/svg" viewBox="0 0 512 512" width="512" height="512" fill="#41DF04" fill-rule="evenodd">
  <path d="M 119.714 387.292 L 113.500 386.026 L 107.343 382.996 L 101.186 379.966 L 95.733 374.600 L 90.281 369.234 L 87.261 363.867 L 84.241 358.500 L 82.519 353.185 L 80.796 347.870 L 80.648 340.685 L 80.500 333.500 L 81.255 329.006 L 82.009 324.513 L 85.463 317.241 L 88.916 309.969 L 94.076 304.513 L 99.236 299.057 L 103.868 296.106 L 108.500 293.155 L 115.365 290.954 L 122.229 288.753 L 132.898 289.192 L 143.567 289.632 L 152.534 275.774 L 161.500 261.917 L 173.510 243.708 L 185.520 225.500 L 200.292 202.791 L 215.064 180.083 L 212.131 174.791 L 209.199 169.500 L 207.520 163.572 L 205.840 157.643 L 205.819 149.534 L 205.797 141.424 L 207.288 136.402 L 208.779 131.380 L 211.784 125.440 L 214.789 119.500 L 221.165 113.388 L 227.540 107.275 L 231.520 105.275 L 235.500 103.274 L 240.833 101.529 L 246.165 99.784 L 256.929 100.153 L 267.694 100.521 L 276.160 104.717 L 284.626 108.912 L 289.628 114.206 L 294.630 119.500 L 297.485 124.377 L 300.339 129.254 L 302.170 135.856 L 304.000 142.457 L 304.000 149.180 L 304.000 155.902 L 302.512 161.701 L 301.023 167.500 L 297.994 173.424 L 294.965 179.349 L 297.277 182.924 L 299.590 186.500 L 320.045 217.693 L 340.500 248.886 L 353.636 269.185 L 366.771 289.484 L 377.223 289.152 L 387.676 288.819 L 394.595 290.879 L 401.514 292.940 L 406.347 296.005 L 411.180 299.070 L 416.165 304.270 L 421.150 309.469 L 424.466 316.485 L 427.782 323.500 L 429.016 328.854 L 430.250 334.209 L 429.699 341.354 L 429.148 348.500 L 428.511 351.500 L 427.874 354.500 L 424.729 360.895 L 421.583 367.289 L 415.228 373.739 L 408.872 380.189 L 401.186 383.845 L 393.500 387.500 L 380.425 387.500 L 367.349 387.500 L 358.673 383.201 L 349.997 378.902 L 345.207 374.111 L 340.417 369.321 L 336.654 362.161 L 332.891 355.000 L 255.195 355.008 L 177.500 355.017 L 174.000 361.684 L 170.500 368.351 L 165.500 373.473 L 160.500 378.595 L 155.990 381.093 L 151.481 383.590 L 146.990 385.410 L 142.500 387.230 L 134.214 387.894 L 125.928 388.559 L 119.714 387.292 Z M 334.778 319.250 L 336.931 314.500 L 339.053 310.942 L 341.174 307.383 L 321.337 277.226 L 301.500 247.068 L 285.500 222.532 L 269.500 197.995 L 265.500 198.747 L 261.500 199.500 L 255.000 199.500 L 248.500 199.500 L 244.877 198.728 L 241.253 197.957 L 230.849 213.728 L 220.445 229.500 L 211.637 243.000 L 202.830 256.500 L 186.027 282.000 L 169.224 307.500 L 171.183 310.500 L 173.141 313.500 L 175.558 318.750 L 177.975 324.000 L 255.300 324.000 L 332.625 324.000 L 334.778 319.250 Z"/>
</svg>
