<?xml version="1.0" encoding="UTF-8"?>
<svg xmlns="http://www.w3.org/2000/svg" viewBox="0 0 512 512" width="512" height="512" fill="#41DF04" fill-rule="evenodd">
  <path d="M 252.282 508.638 L 255.500 507.276 L 257.500 505.038 L 259.500 502.800 L 260.000 491.150 L 260.500 479.500 L 265.000 479.229 L 269.500 478.958 L 278.500 477.467 L 287.500 475.975 L 290.500 475.429 L 293.500 474.883 L 297.500 473.987 L 301.500 473.091 L 311.114 470.125 L 320.728 467.159 L 329.614 463.507 L 338.500 459.855 L 350.000 453.803 L 361.500 447.750 L 371.500 440.881 L 381.500 434.011 L 392.500 424.722 L 403.500 415.432 L 413.302 404.045 L 423.104 392.658 L 428.676 384.579 L 434.247 376.500 L 435.706 371.604 L 437.164 366.709 L 436.005 362.104 L 434.846 357.500 L 432.714 353.706 L 430.582 349.912 L 426.189 347.002 L 421.796 344.092 L 417.173 343.399 L 412.550 342.705 L 408.043 343.911 L 403.536 345.116 L 400.288 347.594 L 397.039 350.072 L 395.522 352.286 L 394.006 354.500 L 386.310 364.920 L 378.614 375.340 L 372.575 381.795 L 366.537 388.250 L 359.111 394.317 L 351.686 400.385 L 343.874 405.584 L 336.062 410.783 L 326.024 415.939 L 315.987 421.095 L 309.243 423.669 L 302.500 426.244 L 297.500 427.670 L 292.500 429.095 L 287.500 430.450 L 282.500 431.804 L 275.500 432.964 L 268.500 434.125 L 264.250 434.692 L 260.000 435.260 L 260.000 424.580 L 260.000 413.901 L 258.551 411.099 L 257.102 408.297 L 254.586 406.648 L 252.070 405.000 L 248.969 405.000 L 245.869 405.000 L 243.689 406.167 L 241.509 407.333 L 229.004 417.583 L 216.500 427.833 L 203.030 438.927 L 189.559 450.020 L 188.315 452.260 L 187.071 454.500 L 187.035 457.668 L 187.000 460.836 L 187.615 462.439 L 188.230 464.041 L 195.865 470.212 L 203.500 476.384 L 211.000 482.491 L 218.500 488.598 L 229.446 497.507 L 240.391 506.415 L 243.907 508.208 L 247.423 510.000 L 248.244 510.000 L 249.064 510.000 L 252.282 508.638 Z M 131.000 459.231 L 137.500 456.072 L 140.713 453.020 L 143.926 449.968 L 147.023 445.467 L 150.119 440.966 L 152.060 435.327 L 154.000 429.687 L 154.000 423.247 L 154.000 416.808 L 152.433 411.418 L 150.866 406.027 L 146.926 400.127 L 142.986 394.227 L 139.478 391.551 L 135.971 388.876 L 130.735 386.511 L 125.500 384.145 L 119.321 382.956 L 113.142 381.768 L 105.646 383.435 L 98.151 385.103 L 92.270 388.904 L 86.389 392.705 L 83.160 396.603 L 79.932 400.500 L 77.276 406.000 L 74.620 411.500 L 74.208 421.000 L 73.797 430.500 L 75.783 436.136 L 77.769 441.772 L 81.798 447.226 L 85.827 452.681 L 91.077 456.049 L 96.326 459.418 L 101.413 461.233 L 106.500 463.049 L 115.500 462.719 L 124.500 462.390 L 131.000 459.231 Z M 64.056 369.480 L 68.363 367.961 L 71.578 365.508 L 74.793 363.056 L 77.397 357.832 L 80.000 352.607 L 80.000 347.746 L 80.000 342.885 L 74.614 330.692 L 69.228 318.500 L 66.605 310.171 L 63.983 301.843 L 62.008 292.793 L 60.033 283.744 L 58.884 270.410 L 57.734 257.075 L 58.852 242.288 L 59.970 227.500 L 62.036 218.000 L 64.101 208.500 L 68.016 196.750 L 71.931 184.999 L 77.168 174.251 L 82.404 163.503 L 89.101 153.487 L 95.799 143.471 L 103.219 134.986 L 110.639 126.500 L 118.069 119.900 L 125.500 113.300 L 133.000 107.822 L 140.500 102.345 L 150.500 96.776 L 160.500 91.208 L 164.322 87.923 L 168.144 84.638 L 170.183 80.641 L 172.222 76.644 L 172.222 70.500 L 172.222 64.356 L 170.140 60.275 L 168.058 56.193 L 164.279 53.072 L 160.500 49.951 L 156.500 48.865 L 152.500 47.779 L 148.575 47.829 L 144.650 47.879 L 134.575 52.810 L 124.500 57.741 L 112.814 65.620 L 101.127 73.500 L 91.166 82.273 L 81.204 91.046 L 73.806 99.273 L 66.408 107.500 L 62.300 112.500 L 58.192 117.500 L 51.570 127.456 L 44.949 137.411 L 39.069 148.956 L 33.188 160.500 L 29.674 169.000 L 26.161 177.500 L 22.580 189.593 L 18.998 201.686 L 17.958 206.593 L 16.919 211.500 L 15.380 221.000 L 13.842 230.500 L 13.322 251.706 L 12.802 272.912 L 14.449 284.706 L 16.096 296.500 L 17.632 304.000 L 19.167 311.500 L 22.666 323.000 L 26.165 334.500 L 31.233 346.500 L 36.301 358.500 L 38.190 361.210 L 40.080 363.920 L 43.175 366.125 L 46.270 368.329 L 49.885 369.620 L 53.500 370.912 L 56.624 370.956 L 59.749 371.000 L 64.056 369.480 Z M 450.251 313.537 L 452.105 312.238 L 461.696 300.869 L 471.288 289.500 L 479.894 279.615 L 488.500 269.730 L 493.750 263.739 L 499.000 257.748 L 499.000 253.421 L 499.000 249.094 L 497.897 246.673 L 496.794 244.253 L 493.011 242.126 L 489.228 240.000 L 478.114 240.000 L 467.000 240.000 L 466.992 238.250 L 466.984 236.500 L 465.979 227.500 L 464.975 218.500 L 463.415 210.500 L 461.855 202.500 L 458.356 190.500 L 454.857 178.500 L 449.839 166.500 L 444.821 154.500 L 440.574 146.500 L 436.327 138.500 L 433.951 134.500 L 431.574 130.500 L 425.896 122.156 L 420.218 113.811 L 410.518 102.496 L 400.819 91.181 L 389.659 81.623 L 378.500 72.065 L 371.428 67.090 L 364.356 62.114 L 355.543 57.025 L 346.730 51.935 L 341.335 49.467 L 335.941 47.000 L 330.938 47.000 L 325.936 47.000 L 322.218 48.551 L 318.500 50.101 L 315.165 53.301 L 311.829 56.500 L 310.246 59.500 L 308.663 62.500 L 307.933 66.429 L 307.203 70.359 L 308.605 75.743 L 310.008 81.127 L 313.027 84.884 L 316.046 88.640 L 327.291 94.841 L 338.536 101.043 L 349.200 108.961 L 359.865 116.879 L 369.411 126.487 L 378.956 136.095 L 383.333 141.798 L 387.710 147.500 L 392.732 155.000 L 397.754 162.500 L 402.745 172.500 L 407.737 182.500 L 410.309 189.500 L 412.881 196.500 L 415.333 205.000 L 417.785 213.500 L 419.331 222.500 L 420.877 231.500 L 421.343 235.750 L 421.810 240.000 L 409.639 240.000 L 397.469 240.000 L 394.035 241.842 L 390.601 243.683 L 388.693 247.360 L 386.784 251.038 L 387.417 254.408 L 388.049 257.779 L 394.275 265.200 L 400.500 272.620 L 412.136 286.060 L 423.773 299.500 L 429.865 306.500 L 435.957 313.500 L 438.729 314.738 L 441.500 315.976 L 444.949 315.406 L 448.398 314.835 L 450.251 313.537 Z M 256.317 85.090 L 262.134 82.806 L 268.370 76.972 L 274.607 71.139 L 277.215 66.319 L 279.823 61.500 L 281.534 55.575 L 283.244 49.650 L 282.740 43.075 L 282.235 36.500 L 280.055 30.775 L 277.875 25.050 L 273.538 19.158 L 269.200 13.266 L 263.047 9.529 L 256.895 5.791 L 251.697 4.407 L 246.500 3.023 L 241.000 2.918 L 235.500 2.813 L 230.546 3.956 L 225.593 5.100 L 219.809 8.182 L 214.026 11.265 L 209.448 16.159 L 204.870 21.053 L 201.685 27.777 L 198.501 34.500 L 198.155 43.706 L 197.810 52.912 L 199.521 58.206 L 201.232 63.500 L 204.171 68.173 L 207.110 72.847 L 211.465 76.861 L 215.820 80.875 L 221.160 83.600 L 226.500 86.324 L 229.500 87.105 L 232.500 87.885 L 241.500 87.629 L 250.500 87.374 L 256.317 85.090 Z"/>
</svg>
